<svg preserveAspectRatio="none" width="100%" height="100%" overflow="visible" style="display: block;" viewBox="0 0 50.5025 25.5004" fill="none" xmlns="http://www.w3.org/2000/svg">
<g id="Vector" filter="url(#filter0_d_0_5)">
<path d="M4.90809 15.9561L24.1879 1.02027C24.2946 0.938221 24.4493 0.869977 24.6363 0.822497C24.8232 0.775017 25.0358 0.750001 25.2522 0.75C25.4686 0.749999 25.6811 0.775014 25.8681 0.822493C26.055 0.869972 26.2098 0.938214 26.3165 1.02026L45.5961 15.956C45.7187 16.0518 45.7706 16.1617 45.7447 16.2707C45.7188 16.3798 45.6163 16.4827 45.4513 16.5655C45.2862 16.6483 45.0666 16.7069 44.8224 16.7333C44.5782 16.7597 44.3212 16.7526 44.0865 16.713L25.695 13.5976C25.4101 13.5494 25.0941 13.5494 24.8093 13.5976L6.41768 16.7142C6.18271 16.754 5.92526 16.7612 5.68056 16.7348C5.43586 16.7084 5.21584 16.6497 5.05062 16.5667C4.88539 16.4838 4.78302 16.3806 4.75751 16.2713C4.732 16.162 4.78459 16.0519 4.90809 15.9561Z" fill="var(--fill-0, #F6EAF2)" fill-opacity="0.5" shape-rendering="crispEdges"/>
<path d="M4.90809 15.9561L24.1879 1.02027C24.2946 0.938221 24.4493 0.869977 24.6363 0.822497C24.8232 0.775017 25.0358 0.750001 25.2522 0.75C25.4686 0.749999 25.6811 0.775014 25.8681 0.822493C26.055 0.869972 26.2098 0.938214 26.3165 1.02026L45.5961 15.956C45.7187 16.0518 45.7706 16.1617 45.7447 16.2707C45.7188 16.3798 45.6163 16.4827 45.4513 16.5655C45.2862 16.6483 45.0666 16.7069 44.8224 16.7333C44.5782 16.7597 44.3212 16.7526 44.0865 16.713L25.695 13.5976C25.4101 13.5494 25.0941 13.5494 24.8093 13.5976L6.41768 16.7142C6.18271 16.754 5.92526 16.7612 5.68056 16.7348C5.43586 16.7084 5.21584 16.6497 5.05062 16.5667C4.88539 16.4838 4.78302 16.3806 4.75751 16.2713C4.732 16.162 4.78459 16.0519 4.90809 15.9561Z" stroke="var(--stroke-0, #F5EFF6)" stroke-width="1.5" stroke-linecap="round" stroke-linejoin="round" shape-rendering="crispEdges"/>
</g>
<defs>
<filter id="filter0_d_0_5" x="0" y="0" width="50.5025" height="25.5004" filterUnits="userSpaceOnUse" color-interpolation-filters="sRGB">
<feFlood flood-opacity="0" result="BackgroundImageFix"/>
<feColorMatrix in="SourceAlpha" type="matrix" values="0 0 0 0 0 0 0 0 0 0 0 0 0 0 0 0 0 0 127 0" result="hardAlpha"/>
<feOffset dy="4"/>
<feGaussianBlur stdDeviation="2"/>
<feComposite in2="hardAlpha" operator="out"/>
<feColorMatrix type="matrix" values="0 0 0 0 0.236403 0 0 0 0 0.233353 0 0 0 0 0.233353 0 0 0 0.3 0"/>
<feBlend mode="normal" in2="BackgroundImageFix" result="effect1_dropShadow_0_5"/>
<feBlend mode="normal" in="SourceGraphic" in2="effect1_dropShadow_0_5" result="shape"/>
</filter>
</defs>
</svg>
