<svg preserveAspectRatio="none" width="100%" height="100%" overflow="visible" style="display: block;" viewBox="0 0 24.6667 27.5" fill="none" xmlns="http://www.w3.org/2000/svg">
<path id="Vector" d="M8.40983 9.5H5.53361C3.9468 9.5 3.1528 9.5 2.54671 9.80881C2.01359 10.0805 1.58046 10.5136 1.30882 11.0467C1 11.6528 1 12.4468 1 14.0336V21.9669C1 23.5538 1 24.3467 1.30882 24.9528C1.58046 25.486 2.01359 25.9198 2.54671 26.1915C3.1522 26.5 3.94528 26.5 5.529 26.5H19.1377C20.7214 26.5 21.5133 26.5 22.1188 26.1915C22.6519 25.9198 23.0865 25.486 23.3582 24.9528C23.6667 24.3473 23.6667 23.5554 23.6667 21.9717V14.029C23.6667 12.4452 23.6667 11.6522 23.3582 11.0467C23.0865 10.5136 22.6519 10.0805 22.1188 9.80881C21.5127 9.5 20.7204 9.5 19.1336 9.5H16.256M8.40983 9.5H16.256M8.40983 9.5C8.22928 9.5 8.08333 9.35363 8.08333 9.17308V5.25C8.08333 2.90279 9.98612 1 12.3333 1C14.6805 1 16.5833 2.90279 16.5833 5.25V9.17308C16.5833 9.35363 16.4365 9.5 16.256 9.5" stroke="var(--stroke-0, #F6EAF2)" stroke-width="2" stroke-linecap="round" stroke-linejoin="round"/>
</svg>
