<svg preserveAspectRatio="none" width="100%" height="100%" overflow="visible" style="display: block;" viewBox="0 0 29.5853 24.6667" fill="none" xmlns="http://www.w3.org/2000/svg">
<path id="Vector" d="M8.23603 21.0625C10.1979 22.689 12.7171 23.6667 15.4646 23.6667C21.7238 23.6667 26.7979 18.5926 26.7979 12.3333C26.7979 11.5272 26.7138 10.7407 26.5537 9.98217M8.23603 21.0625C5.72846 18.9837 4.13128 15.845 4.13128 12.3333C4.13128 6.07411 9.20539 1 15.4646 1C20.9177 1 25.4713 4.85125 26.5537 9.98217M8.23603 21.0625C11.0064 20.4292 14.3021 19.109 17.6263 17.1898C21.4943 14.9566 24.6405 12.351 26.5537 9.98217M8.23603 21.0625C4.7947 21.8493 2.16417 21.5761 1.29726 20.0745C0.404309 18.5279 1.57586 16.0123 4.13107 13.3377M26.5537 9.98217C28.3272 7.78641 29.0411 5.79407 28.2884 4.4903C27.5251 3.16822 25.3946 2.7983 22.5473 3.26565" stroke="var(--stroke-0, white)" stroke-width="2" stroke-linecap="round" stroke-linejoin="round"/>
</svg>
